<svg xmlns="http://www.w3.org/2000/svg" viewBox="0 0 500 400" fill="none">
  <rect width="500" height="400" fill="#F3F4F6"/>
  <circle cx="250" cy="200" r="80" fill="#4CAF50" opacity="0.2"/>
  <circle cx="250" cy="200" r="60" fill="#4CAF50" opacity="0.3"/>
  <circle cx="250" cy="200" r="40" fill="#4CAF50" opacity="0.4"/>
  
  <!-- Chart lines -->
  <path d="M150 250 L200 220 L250 180 L300 160 L350 120" stroke="#4CAF50" stroke-width="3" fill="none"/>
  <path d="M150 260 L200 240 L250 230 L300 210 L350 190" stroke="#2196F3" stroke-width="3" fill="none"/>
  
  <!-- Chart dots -->
  <circle cx="150" cy="250" r="5" fill="#4CAF50"/>
  <circle cx="200" cy="220" r="5" fill="#4CAF50"/>
  <circle cx="250" cy="180" r="5" fill="#4CAF50"/>
  <circle cx="300" cy="160" r="5" fill="#4CAF50"/>
  <circle cx="350" cy="120" r="5" fill="#4CAF50"/>
  
  <circle cx="150" cy="260" r="5" fill="#2196F3"/>
  <circle cx="200" cy="240" r="5" fill="#2196F3"/>
  <circle cx="250" cy="230" r="5" fill="#2196F3"/>
  <circle cx="300" cy="210" r="5" fill="#2196F3"/>
  <circle cx="350" cy="190" r="5" fill="#2196F3"/>
  
  <!-- Money symbol -->
  <text x="250" y="210" font-family="Arial, sans-serif" font-size="40" font-weight="bold" text-anchor="middle" fill="#4CAF50">$</text>
  
  <!-- Decorative elements -->
  <rect x="80" y="320" width="40" height="60" fill="#4CAF50" opacity="0.3" rx="5"/>
  <rect x="130" y="300" width="40" height="80" fill="#4CAF50" opacity="0.4" rx="5"/>
  <rect x="180" y="280" width="40" height="100" fill="#4CAF50" opacity="0.5" rx="5"/>
  <rect x="230" y="260" width="40" height="120" fill="#4CAF50" opacity="0.6" rx="5"/>
  <rect x="280" y="240" width="40" height="140" fill="#4CAF50" opacity="0.7" rx="5"/>
  <rect x="330" y="220" width="40" height="160" fill="#4CAF50" opacity="0.8" rx="5"/>
  <rect x="380" y="200" width="40" height="180" fill="#4CAF50" opacity="0.9" rx="5"/>
</svg>